<?xml version="1.0" standalone="no"?>
<!DOCTYPE svg PUBLIC "-//W3C//DTD SVG 20010904//EN"
 "http://www.w3.org/TR/2001/REC-SVG-20010904/DTD/svg10.dtd">
<svg version="1.0" xmlns="http://www.w3.org/2000/svg"
 width="192.000000pt" height="192.000000pt" viewBox="0 0 192.000000 192.000000"
 preserveAspectRatio="xMidYMid meet">
<metadata>
Created by potrace 1.11, written by Peter Selinger 2001-2013
</metadata>
<g transform="translate(0.000000,192.000000) scale(0.100000,-0.100000)"
fill="#000000" stroke="none">
<path d="M0 960 l0 -960 960 0 960 0 0 960 0 960 -960 0 -960 0 0 -960z m826
412 c22 -15 35 -51 25 -71 -29 -53 -121 -34 -121 25 0 38 63 68 96 46z m328 2
c30 -11 38 -41 21 -74 -13 -25 -22 -30 -51 -30 -28 0 -36 5 -44 25 -21 55 20
100 74 79z m362 -19 c33 -50 -15 -113 -65 -86 -16 9 -21 21 -21 49 0 21 5 43
12 50 20 20 56 14 74 -13z m-816 -109 c31 -39 -25 -96 -68 -70 -18 12 -27 46
-18 70 7 19 70 18 86 0z m355 -31 c0 -43 -14 -52 -61 -41 -19 5 -24 13 -24 40
0 42 6 48 50 44 34 -3 35 -4 35 -43z m365 6 c0 -31 -4 -41 -21 -46 -51 -17
-92 22 -69 65 8 15 21 20 50 20 40 0 40 0 40 -39z m-251 -76 c17 -16 18 -60 1
-80 -19 -23 -77 -19 -91 6 -15 28 -3 86 19 92 23 6 54 -2 71 -18z m346 9 c11
-12 14 -26 9 -52 -9 -50 -11 -52 -43 -52 -37 0 -51 17 -51 62 0 53 49 78 85
42z m-677 -6 c13 -13 16 -56 6 -82 -8 -21 -77 -21 -98 0 -19 18 -21 65 -4 82
16 16 80 16 96 0z m-348 -117 c16 -31 13 -98 -6 -105 -76 -29 -149 49 -97 106
23 25 89 25 103 -1z m1164 -3 c18 -25 21 -65 6 -88 -15 -23 -98 -20 -116 4
-23 32 -18 85 9 96 42 17 85 12 101 -12z m-250 -151 c7 -18 6 -31 0 -37 -7 -7
-160 -11 -444 -12 -459 0 -458 0 -440 46 10 30 31 31 480 31 l395 -1 9 -27z
m-912 -90 c11 -17 10 -45 -2 -68 -20 -37 -130 -12 -130 30 0 18 23 44 50 54
22 9 73 -1 82 -16z m1176 0 c21 -16 14 -55 -13 -73 -20 -13 -34 -15 -68 -8
-36 8 -42 13 -45 37 -2 16 2 34 8 42 19 23 89 25 118 2z m-840 -103 c24 -17
29 -53 10 -72 -17 -17 -74 -15 -92 4 -50 49 22 110 82 68z m336 0 c22 -21 20
-61 -3 -74 -57 -30 -108 10 -83 65 14 29 61 35 86 9z m356 1 c14 -17 5 -65
-13 -77 -21 -14 -65 -9 -71 8 -8 21 -8 69 1 77 12 13 71 7 83 -8z m-822 -162
c3 -50 2 -53 -24 -59 -38 -10 -58 7 -62 50 -4 48 12 68 52 64 30 -3 31 -5 34
-55z m358 33 c3 -13 4 -38 2 -57 -3 -29 -7 -34 -31 -37 -39 -5 -57 14 -57 57
0 44 14 61 52 61 21 0 29 -6 34 -24z m360 0 c3 -13 4 -38 2 -57 -3 -32 -5 -34
-43 -34 l-40 0 -3 44 c-5 61 2 71 42 71 29 0 37 -4 42 -24z m-592 -112 c48
-18 38 -77 -14 -87 -48 -10 -80 7 -80 42 0 42 45 64 94 45z m346 -14 c28 -28
25 -47 -10 -65 -67 -35 -113 3 -80 66 14 25 64 25 90 -1z m344 1 c10 -11 16
-30 14 -42 -4 -29 -50 -49 -76 -33 -18 11 -28 55 -18 80 8 20 60 17 80 -5z"/>
</g>
</svg>
